<svg width="840" height="620" viewBox="0 0 840 620" fill="none" xmlns="http://www.w3.org/2000/svg">
  <rect width="840" height="620" rx="36" fill="#E8F1F4"/>
  <path d="M96 494C190 435 279 432 363 484C444 534 562 538 741 479V620H96V494Z" fill="#D9E7DE"/>
  <rect x="138" y="376" width="306" height="84" rx="42" fill="#FFFFFF"/>
  <rect x="171" y="407" width="106" height="18" rx="9" fill="#DCE4DD"/>
  <circle cx="365" cy="418" r="20" fill="#F0B949"/>
  <path d="M517 147C517 121.043 538.043 100 564 100H646C671.957 100 693 121.043 693 147V449C693 474.957 671.957 496 646 496H564C538.043 496 517 474.957 517 449V147Z" fill="#20221F"/>
  <rect x="534" y="130" width="142" height="314" rx="24" fill="#F9FAF5"/>
  <circle cx="605" cy="466" r="13" fill="#3B3F39"/>
  <rect x="552" y="162" width="106" height="56" rx="12" fill="#2F7D5A"/>
  <rect x="552" y="240" width="106" height="18" rx="9" fill="#DCE4DD"/>
  <rect x="552" y="274" width="70" height="18" rx="9" fill="#F0B949"/>
  <rect x="552" y="330" width="106" height="18" rx="9" fill="#DCE4DD"/>
  <rect x="552" y="364" width="88" height="18" rx="9" fill="#DCE4DD"/>
  <path d="M178 172C178 137.758 205.758 110 240 110H323C357.242 110 385 137.758 385 172V370H178V172Z" fill="#FFFFFF"/>
  <path d="M202 184C202 162.461 219.461 145 241 145H322C343.539 145 361 162.461 361 184V347H202V184Z" fill="#F6F7F2"/>
  <circle cx="281.5" cy="232.5" r="48.5" fill="#F0B949"/>
  <circle cx="281.5" cy="232.5" r="74.5" stroke="#F0B949" stroke-opacity="0.35" stroke-width="16"/>
  <rect x="220" y="320" width="123" height="18" rx="9" fill="#DCE4DD"/>
  <rect x="158" y="366" width="247" height="34" rx="17" fill="#2F7D5A"/>
  <circle cx="219" cy="400" r="10" fill="#F0B949"/>
  <path d="M438 251C470 220 495 219 528 251" stroke="#2F7D5A" stroke-width="14" stroke-linecap="round"/>
  <path d="M456 286C478 266 493 266 514 286" stroke="#2F7D5A" stroke-width="14" stroke-linecap="round"/>
  <path d="M477 319C486 312 493 312 502 319" stroke="#2F7D5A" stroke-width="14" stroke-linecap="round"/>
  <circle cx="140" cy="135" r="20" fill="#F0B949" opacity="0.65"/>
  <circle cx="719" cy="123" r="15" fill="#2F7D5A" opacity="0.5"/>
  <circle cx="454" cy="107" r="12" fill="#F0B949" opacity="0.5"/>
</svg>
